<svg width="249" height="247" viewBox="0 0 249 247" fill="none" xmlns="http://www.w3.org/2000/svg">
<g opacity="0.6" filter="url(#filter0_d)">
<rect x="50" y="46" width="149" height="147" fill="white"/>
</g>
<path d="M120.081 119.108C120.053 118.526 119.561 118.077 118.976 118.105C118.393 118.133 117.944 118.628 117.972 119.21L118.691 134.037C118.718 134.602 119.185 135.041 119.745 135.041C119.762 135.041 119.779 135.041 119.797 135.04C120.379 135.012 120.828 134.517 120.8 133.935L120.081 119.108Z" fill="#EC3892"/>
<path d="M129.024 118.105C128.438 118.076 127.947 118.526 127.919 119.108L127.2 133.935C127.172 134.517 127.621 135.012 128.203 135.04C128.221 135.041 128.238 135.041 128.255 135.041C128.815 135.041 129.282 134.602 129.309 134.037L130.028 119.21C130.056 118.628 129.607 118.133 129.024 118.105Z" fill="#EC3892"/>
<path d="M112.291 133.985L111.118 125.926C111.034 125.349 110.499 124.949 109.922 125.033C109.345 125.117 108.945 125.653 109.029 126.23L110.201 134.289C110.278 134.815 110.729 135.193 111.245 135.193C111.295 135.193 111.346 135.19 111.398 135.182C111.975 135.098 112.375 134.562 112.291 133.985Z" fill="#EC3892"/>
<path d="M110.411 121.062L110.134 119.159C110.05 118.582 109.512 118.183 108.937 118.267C108.36 118.351 107.961 118.886 108.045 119.463L108.321 121.366C108.398 121.891 108.849 122.27 109.365 122.27C109.415 122.27 109.466 122.266 109.518 122.258C110.095 122.174 110.495 121.639 110.411 121.062Z" fill="#EC3892"/>
<path d="M137.169 131.35C136.593 131.266 136.056 131.666 135.972 132.243L135.719 133.986C135.635 134.563 136.035 135.098 136.612 135.182C136.663 135.19 136.714 135.193 136.765 135.193C137.281 135.193 137.732 134.815 137.808 134.289L138.062 132.547C138.146 131.97 137.746 131.434 137.169 131.35Z" fill="#EC3892"/>
<path d="M139.072 118.267C138.496 118.183 137.959 118.582 137.875 119.159L136.679 127.382C136.595 127.959 136.995 128.494 137.572 128.578C137.624 128.586 137.675 128.59 137.725 128.59C138.241 128.59 138.692 128.211 138.769 127.686L139.965 119.463C140.049 118.886 139.649 118.351 139.072 118.267Z" fill="#EC3892"/>
<path d="M153.946 107.036H152.746C152.754 106.069 152.581 105.045 152.232 104.056C151.919 103.166 151.483 102.35 150.957 101.653V95.9565C150.956 81.0926 138.864 69 124 69C109.136 69 97.0433 81.0926 97.0433 95.9565V101.441C97.0433 101.506 97.0501 101.569 97.0611 101.63C96.5271 102.332 96.0843 103.156 95.7676 104.056C95.4194 105.045 95.2456 106.069 95.2542 107.036H94.0543C92.1539 107.036 90.6079 108.582 90.6079 110.483C90.6079 112.383 92.1541 113.929 94.0543 113.929H94.8572L101.655 136.057C102.563 139.014 105.251 141 108.344 141H139.656C142.749 141 145.437 139.014 146.345 136.057L153.143 113.929H153.945C155.846 113.929 157.392 112.383 157.392 110.483C157.392 108.582 155.846 107.036 153.946 107.036ZM149.428 103.145C149.755 103.623 150.034 104.171 150.241 104.757C150.511 105.527 150.646 106.311 150.636 107.036H144.321C143.822 105.081 142.038 103.624 139.94 103.624C137.843 103.624 136.059 105.081 135.56 107.036H129.45C129.44 106.311 129.574 105.527 129.844 104.757C130.244 103.621 130.916 102.623 131.688 102.02C131.862 101.884 132.111 101.715 132.397 101.595C132.404 101.592 132.411 101.59 132.418 101.587C132.71 101.469 132.983 101.425 133.231 101.455C133.243 101.457 133.255 101.46 133.267 101.462C133.296 101.466 133.325 101.47 133.353 101.477C133.393 101.486 133.434 101.498 133.475 101.512C133.607 101.559 133.893 101.687 134.321 102.021C134.695 102.313 135.217 102.32 135.598 102.038C135.979 101.756 136.126 101.255 135.957 100.812C135.777 100.342 135.674 99.9049 135.674 99.6129C135.674 99.4688 135.704 99.3225 135.761 99.1771C135.971 98.9465 136.157 98.6937 136.316 98.4234C137.042 97.7702 138.336 97.266 139.94 97.266C141.136 97.266 142.293 97.565 143.117 98.0859C143.807 98.5251 144.207 99.0833 144.207 99.6129C144.207 99.951 144.068 100.481 143.836 101.031C143.645 101.484 143.792 102.009 144.19 102.297C144.588 102.585 145.132 102.56 145.503 102.237C146.085 101.73 146.471 101.561 146.611 101.512C147.293 101.272 148.023 101.727 148.397 102.02C148.563 102.149 148.724 102.298 148.879 102.462C148.954 102.761 149.158 103.01 149.428 103.145ZM142.077 107.036H137.804C138.208 106.264 139.017 105.735 139.94 105.735C140.864 105.735 141.673 106.265 142.077 107.036ZM123.898 103.623C122.534 103.623 121.302 104.24 120.47 105.209C120.388 104.823 120.281 104.437 120.147 104.056C119.911 103.388 119.607 102.761 119.247 102.195C119.356 102.161 119.46 102.108 119.555 102.038C119.936 101.756 120.083 101.255 119.914 100.812C119.734 100.342 119.631 99.9047 119.631 99.6128C119.631 98.8776 120.355 98.1399 121.519 97.6872C121.52 97.6871 121.52 97.6871 121.52 97.6869C122.229 97.4116 123.051 97.2659 123.898 97.2659C126.412 97.2659 128.164 98.5027 128.164 99.6128C128.164 99.9509 128.025 100.481 127.793 101.031C127.602 101.484 127.749 102.008 128.147 102.297C128.279 102.392 128.427 102.452 128.58 102.479C128.295 102.968 128.049 103.498 127.853 104.056C127.696 104.503 127.574 104.957 127.488 105.409C126.659 104.326 125.354 103.623 123.898 103.623ZM126.035 107.036H121.761C122.165 106.264 122.975 105.735 123.898 105.735C124.821 105.735 125.631 106.265 126.035 107.036ZM115.377 91.6143C113.041 91.6143 111.113 93.3955 110.88 95.6712C109.984 95.341 108.957 95.1547 107.855 95.1547C107.732 95.1547 107.611 95.1577 107.49 95.1622C107.468 95.163 107.446 95.1644 107.425 95.1654C107.317 95.1702 107.211 95.1768 107.105 95.1851C107.095 95.1859 107.085 95.1868 107.075 95.1875C106.308 95.2502 105.585 95.4042 104.932 95.6349C104.815 94.7662 104.933 93.7379 105.281 92.748C106.116 90.3763 107.866 89.1347 108.912 89.503C109.044 89.5495 109.33 89.6775 109.758 90.0119C110.131 90.3037 110.654 90.3103 111.035 90.0288C111.416 89.7471 111.563 89.2459 111.394 88.8031C111.214 88.3328 111.111 87.8958 111.111 87.6037C111.111 86.4936 112.863 85.2568 115.377 85.2568C117.892 85.2568 119.644 86.4936 119.644 87.6037C119.644 87.9418 119.505 88.4719 119.273 89.022C119.082 89.4749 119.229 89.9994 119.627 90.2875C120.025 90.5755 120.569 90.5509 120.94 90.228C121.149 90.0455 121.333 89.9069 121.489 89.8018C121.476 89.8198 121.464 89.8385 121.451 89.8567C121.416 89.9074 121.38 89.9586 121.345 90.0106C121.324 90.0424 121.303 90.0745 121.282 90.1068C121.249 90.1577 121.216 90.2092 121.184 90.2612C121.162 90.2954 121.141 90.3297 121.121 90.3642C121.09 90.4156 121.059 90.4678 121.029 90.5203C121.009 90.5561 120.988 90.5921 120.968 90.6284C120.938 90.6811 120.91 90.7344 120.882 90.788C120.862 90.8251 120.842 90.862 120.823 90.8995C120.795 90.9541 120.768 91.0094 120.741 91.0648C120.723 91.1022 120.705 91.1393 120.687 91.1771C120.66 91.2348 120.634 91.2931 120.608 91.3516C120.592 91.3882 120.575 91.4245 120.559 91.4615C120.532 91.5257 120.505 91.5908 120.479 91.656C120.466 91.6879 120.453 91.7194 120.44 91.7514C120.402 91.849 120.366 91.9476 120.331 92.0472C120.296 92.146 120.263 92.2452 120.232 92.3445C120.222 92.3752 120.213 92.4062 120.204 92.4371C120.183 92.5072 120.162 92.5772 120.143 92.6474C120.133 92.6817 120.124 92.7158 120.115 92.7502C120.096 92.8213 120.078 92.8923 120.061 92.9635C120.054 92.9933 120.046 93.023 120.039 93.0528C120.016 93.1525 119.995 93.2523 119.975 93.352C119.974 93.3602 119.973 93.3682 119.971 93.3764C119.953 93.468 119.938 93.5597 119.923 93.6513C119.918 93.6825 119.914 93.7137 119.909 93.7449C119.899 93.8147 119.889 93.8843 119.881 93.9538C119.876 93.9875 119.873 94.0213 119.869 94.0549C119.861 94.1269 119.854 94.1985 119.848 94.2702C119.845 94.2979 119.843 94.3256 119.84 94.3531C119.833 94.4513 119.827 94.5492 119.823 94.6465C119.823 94.6603 119.823 94.6738 119.822 94.6875C119.82 94.7711 119.818 94.8543 119.818 94.937C119.818 94.9681 119.818 94.999 119.818 95.0301C119.819 95.0969 119.821 95.1634 119.823 95.2297C119.824 95.2619 119.825 95.2939 119.827 95.326C119.827 95.331 119.827 95.3361 119.827 95.3412C119.451 93.2257 117.599 91.6143 115.377 91.6143ZM117.788 96.1358C117.788 97.4649 116.706 98.546 115.377 98.546C114.766 98.546 114.209 98.3153 113.783 97.9385C113.623 97.655 113.423 97.3871 113.188 97.1371C113.048 96.8317 112.967 96.4933 112.967 96.1358C112.967 94.8069 114.049 93.7257 115.378 93.7257C116.707 93.7257 117.788 94.8069 117.788 96.1358ZM119.909 96.1121C119.905 96.114 119.902 96.1162 119.898 96.1181C119.898 96.0869 119.897 96.0561 119.896 96.025C119.9 96.054 119.904 96.0833 119.909 96.1121ZM127.897 96.1159C126.81 95.512 125.425 95.1547 123.898 95.1547C123.231 95.1547 122.571 95.2257 121.944 95.363C121.944 95.3604 121.944 95.3579 121.944 95.3554C121.937 95.2651 121.933 95.1731 121.931 95.0803C121.93 95.0556 121.931 95.0305 121.93 95.0055C121.93 94.9325 121.931 94.8588 121.933 94.7847C121.934 94.7593 121.934 94.734 121.935 94.7085C121.939 94.6129 121.945 94.5165 121.954 94.4192C121.955 94.4071 121.957 94.3949 121.958 94.3828C121.966 94.2967 121.977 94.2101 121.989 94.1231C121.993 94.0945 121.997 94.0658 122.001 94.0373C122.013 93.957 122.027 93.8764 122.042 93.7957C122.046 93.7753 122.049 93.7551 122.053 93.7347C122.072 93.636 122.094 93.5371 122.118 93.4382C122.124 93.4135 122.131 93.3889 122.137 93.3643C122.157 93.2866 122.178 93.2089 122.2 93.1314C122.209 93.1027 122.217 93.0742 122.226 93.0455C122.255 92.947 122.287 92.8489 122.321 92.7511C122.322 92.7502 122.322 92.7492 122.322 92.7482C122.35 92.6707 122.378 92.5941 122.408 92.5181C122.418 92.4911 122.43 92.4645 122.44 92.4377C122.46 92.39 122.479 92.3425 122.499 92.2954C122.514 92.2615 122.529 92.228 122.544 92.1945C122.561 92.156 122.579 92.1176 122.597 92.0797C122.614 92.0422 122.632 92.005 122.65 91.968C122.666 91.9359 122.682 91.904 122.698 91.8724C122.719 91.832 122.739 91.7918 122.761 91.752C122.774 91.7265 122.788 91.7015 122.802 91.6765C122.827 91.6323 122.851 91.5882 122.876 91.5449C122.882 91.535 122.888 91.5256 122.893 91.5158C122.989 91.3528 123.091 91.1964 123.197 91.0472C123.209 91.0305 123.221 91.0133 123.233 90.9967C123.261 90.9578 123.29 90.9199 123.319 90.8821C123.335 90.8609 123.352 90.8395 123.368 90.8185C123.395 90.7842 123.422 90.7505 123.45 90.7171C123.47 90.6932 123.49 90.6696 123.51 90.6461C123.535 90.6163 123.561 90.5868 123.587 90.558C123.611 90.5307 123.636 90.504 123.661 90.4775C123.683 90.4535 123.706 90.4293 123.728 90.4059C123.764 90.3697 123.799 90.3345 123.835 90.2998C123.848 90.2872 123.861 90.2742 123.874 90.2619C123.926 90.2131 123.979 90.1659 124.032 90.1208C124.032 90.1205 124.032 90.1202 124.033 90.1198C124.196 89.9803 124.365 89.8583 124.537 89.7567C124.538 89.756 124.539 89.7551 124.541 89.7544C124.933 89.5227 125.455 89.3278 125.952 89.5031C126.085 89.5497 126.37 89.6775 126.798 90.012C127.172 90.3037 127.694 90.3106 128.075 90.0289C128.457 89.7474 128.604 89.2462 128.434 88.8034C128.255 88.333 128.152 87.8958 128.152 87.6038C128.152 86.4938 129.904 85.257 132.418 85.257C134.932 85.257 136.684 86.4938 136.684 87.6038C136.684 87.9422 136.546 88.4723 136.314 89.022C136.123 89.4747 136.269 89.9994 136.668 90.2877C137.065 90.5757 137.61 90.5511 137.98 90.2282C138.562 89.721 138.949 89.5522 139.088 89.5031C139.771 89.2631 140.5 89.718 140.874 90.0105C141.646 90.6139 142.318 91.6117 142.718 92.7482C143.079 93.7719 143.193 94.8263 143.06 95.7076C142.373 95.4438 141.606 95.2659 140.785 95.1931C140.767 95.1914 140.749 95.19 140.731 95.1885C140.625 95.1796 140.518 95.1726 140.41 95.1674C140.381 95.166 140.352 95.1643 140.323 95.163C140.197 95.1579 140.069 95.1547 139.94 95.1547C139.508 95.1547 139.087 95.1834 138.681 95.2381C138.681 95.2381 138.681 95.2381 138.68 95.2382C138.052 95.323 137.46 95.471 136.916 95.6715C136.683 93.3958 134.754 91.6145 132.418 91.6145C129.932 91.6143 127.908 93.6319 127.897 96.1159ZM134.828 96.1358C134.828 96.4928 134.748 96.8307 134.608 97.1357C134.373 97.3857 134.174 97.654 134.014 97.9374C133.588 98.3147 133.03 98.546 132.418 98.546C131.089 98.546 130.008 97.4649 130.008 96.1358C130.008 94.8069 131.089 93.7257 132.418 93.7257C133.747 93.7257 134.828 94.8069 134.828 96.1358ZM99.1545 95.9565C99.1545 82.2569 110.3 71.1113 124 71.1113C137.699 71.1113 148.845 82.2569 148.845 95.9565V99.8088C148.003 99.3774 147.124 99.2359 146.312 99.4076C146.251 98.4301 145.76 97.5436 144.965 96.8362C145.378 95.4354 145.295 93.711 144.71 92.047C144.172 90.5183 143.272 89.2043 142.175 88.3469C141.093 87.5018 139.882 87.1673 138.789 87.3985C138.641 84.9974 135.896 83.1453 132.418 83.1453C128.958 83.1453 126.223 84.9789 126.049 87.3624C125.386 87.2649 124.686 87.3707 124.002 87.6657C123.245 87.3376 122.47 87.2451 121.749 87.3984C121.6 84.9972 118.855 83.1453 115.377 83.1453C111.918 83.1453 109.183 84.9778 109.009 87.3607C106.795 87.0264 104.377 88.9581 103.29 92.047C102.726 93.6476 102.629 95.3204 102.996 96.6962C102.114 97.4169 101.561 98.3427 101.486 99.3715C100.731 99.2605 99.9271 99.4132 99.1545 99.8092V95.9565ZM97.759 104.757C98.1589 103.621 98.831 102.623 99.6028 102.02C99.9772 101.727 100.707 101.272 101.389 101.512C101.521 101.559 101.807 101.687 102.235 102.021C102.609 102.313 103.131 102.32 103.512 102.038C103.893 101.757 104.04 101.255 103.871 100.813C103.692 100.342 103.589 99.9049 103.589 99.6129C103.589 99.0568 104.029 98.4688 104.784 98.0205C104.787 98.019 104.79 98.0178 104.792 98.0163C105.512 97.5937 106.434 97.3372 107.422 97.279C107.427 97.2787 107.433 97.2786 107.438 97.2783C107.576 97.2705 107.715 97.2662 107.855 97.2662C109.46 97.2662 110.753 97.7705 111.479 98.4238C111.639 98.6938 111.824 98.9465 112.034 99.177C112.091 99.3225 112.121 99.4689 112.121 99.6131C112.121 99.9514 111.983 100.482 111.751 101.031C111.56 101.484 111.706 102.009 112.104 102.297C112.153 102.332 112.203 102.362 112.255 102.387C112.272 102.396 112.291 102.402 112.308 102.409C112.343 102.424 112.378 102.439 112.414 102.45C112.436 102.457 112.458 102.461 112.48 102.466C112.514 102.474 112.547 102.482 112.58 102.486C112.604 102.49 112.627 102.49 112.651 102.492C112.675 102.494 112.699 102.497 112.723 102.497C112.735 102.497 112.747 102.496 112.758 102.496C112.766 102.496 112.775 102.495 112.783 102.495C112.833 102.492 112.884 102.485 112.934 102.476C112.941 102.474 112.949 102.472 112.956 102.47C113.007 102.459 113.056 102.444 113.105 102.426C113.111 102.423 113.116 102.421 113.123 102.418C113.172 102.398 113.221 102.374 113.267 102.346C113.271 102.344 113.274 102.342 113.278 102.339C113.326 102.309 113.373 102.276 113.417 102.238C113.562 102.111 113.696 102.005 113.816 101.917C114.177 101.653 114.42 101.549 114.525 101.512C114.565 101.498 114.606 101.487 114.647 101.477C114.674 101.471 114.702 101.467 114.73 101.462C114.743 101.46 114.756 101.457 114.769 101.456C115.017 101.425 115.289 101.469 115.581 101.588C115.589 101.591 115.597 101.593 115.605 101.596C115.89 101.716 116.138 101.885 116.311 102.02C117.083 102.623 117.755 103.621 118.155 104.757C118.426 105.527 118.56 106.311 118.55 107.036H112.235C111.736 105.081 109.952 103.624 107.855 103.624C105.757 103.624 103.973 105.081 103.474 107.036H97.3641C97.3543 106.311 97.4883 105.527 97.759 104.757ZM109.992 107.036H105.718C106.122 106.264 106.932 105.735 107.855 105.735C108.778 105.735 109.588 106.265 109.992 107.036ZM144.327 135.437C143.693 137.502 141.816 138.889 139.656 138.889H108.344C106.184 138.889 104.307 137.502 103.673 135.437L97.0657 113.929H150.934L144.327 135.437ZM153.946 111.818H94.0543C93.3182 111.818 92.7193 111.219 92.7193 110.483C92.7193 109.746 93.3182 109.147 94.0543 109.147H153.946C154.682 109.147 155.281 109.746 155.281 110.483C155.281 111.219 154.682 111.818 153.946 111.818Z" fill="#EC3892"/>
<path d="M96.8359 172V160.625H103.398V161.883H98.3281V165.461H103.047V166.727H98.3281V172H96.8359ZM105.375 172V160.391H106.812V172H105.375ZM113.031 172.172C111.734 172.172 110.719 171.786 109.984 171.016C109.255 170.245 108.891 169.24 108.891 168C108.891 166.74 109.258 165.721 109.992 164.945C110.732 164.169 111.75 163.781 113.047 163.781C114.339 163.781 115.344 164.169 116.062 164.945C116.781 165.716 117.141 166.734 117.141 168C117.141 169.24 116.776 170.245 116.047 171.016C115.318 171.786 114.312 172.172 113.031 172.172ZM113.031 171C113.875 171 114.518 170.727 114.961 170.18C115.409 169.633 115.633 168.906 115.633 168C115.633 167.078 115.406 166.341 114.953 165.789C114.505 165.232 113.862 164.953 113.023 164.953C112.18 164.953 111.531 165.232 111.078 165.789C110.625 166.341 110.398 167.078 110.398 168C110.398 168.906 110.622 169.633 111.07 170.18C111.523 170.727 112.177 171 113.031 171ZM120.836 172L118.172 163.984H119.703C119.781 164.245 120.057 165.159 120.531 166.727C121.005 168.289 121.37 169.484 121.625 170.312C121.901 169.484 122.299 168.297 122.82 166.75C123.346 165.203 123.659 164.281 123.758 163.984H125.156C125.25 164.276 125.549 165.201 126.055 166.758C126.56 168.31 126.948 169.497 127.219 170.32C127.464 169.497 127.81 168.312 128.258 166.766C128.711 165.219 128.982 164.292 129.07 163.984H130.469L127.805 172H126.453C126.385 171.797 126.091 170.909 125.57 169.336C125.049 167.758 124.654 166.555 124.383 165.727C124.102 166.56 123.682 167.758 123.125 169.32C122.573 170.878 122.258 171.771 122.18 172H120.836ZM133.023 167.211H137.625C137.573 166.477 137.359 165.911 136.984 165.516C136.609 165.12 136.109 164.922 135.484 164.922C134.828 164.922 134.279 165.125 133.836 165.531C133.398 165.938 133.128 166.497 133.023 167.211ZM135.664 172.172C134.388 172.172 133.375 171.794 132.625 171.039C131.875 170.279 131.5 169.271 131.5 168.016C131.5 166.781 131.859 165.768 132.578 164.977C133.302 164.18 134.258 163.781 135.445 163.781C136.195 163.781 136.836 163.956 137.367 164.305C137.904 164.654 138.299 165.128 138.555 165.727C138.815 166.326 138.945 167.021 138.945 167.812C138.945 167.911 138.938 168.039 138.922 168.195H132.984C133 169.091 133.258 169.784 133.758 170.273C134.258 170.758 134.919 171 135.742 171C136.701 171 137.549 170.703 138.289 170.109L138.719 171.172C137.859 171.839 136.841 172.172 135.664 172.172ZM141.219 172V165.953C141.219 165.776 141.208 165.523 141.188 165.195C141.172 164.867 141.156 164.583 141.141 164.344L141.117 163.984H142.641L142.656 165.234C143.141 164.276 143.854 163.797 144.797 163.797C145.094 163.797 145.365 163.828 145.609 163.891L145.602 165.164C145.294 165.081 145 165.039 144.719 165.039C144.104 165.039 143.609 165.255 143.234 165.688C142.859 166.115 142.672 166.732 142.672 167.539V172H141.219ZM150.148 172.172C149.456 172.172 148.844 172.068 148.312 171.859C147.786 171.651 147.378 171.432 147.086 171.203L147.484 170.133C147.781 170.352 148.159 170.549 148.617 170.727C149.081 170.904 149.552 170.992 150.031 170.992C151.094 170.992 151.625 170.602 151.625 169.82C151.625 169.492 151.505 169.247 151.266 169.086C151.026 168.924 150.56 168.727 149.867 168.492L149.18 168.258C148.914 168.164 148.688 168.076 148.5 167.992C148.318 167.909 148.133 167.805 147.945 167.68C147.758 167.549 147.607 167.411 147.492 167.266C147.378 167.115 147.284 166.935 147.211 166.727C147.143 166.513 147.109 166.273 147.109 166.008C147.109 165.628 147.188 165.292 147.344 165C147.505 164.703 147.724 164.471 148 164.305C148.276 164.133 148.581 164.005 148.914 163.922C149.247 163.833 149.607 163.789 149.992 163.789C151.049 163.789 151.94 164.021 152.664 164.484L152.266 165.516C151.562 165.141 150.859 164.953 150.156 164.953C149.641 164.953 149.242 165.042 148.961 165.219C148.68 165.396 148.539 165.646 148.539 165.969C148.539 166.26 148.622 166.477 148.789 166.617C148.961 166.753 149.299 166.911 149.805 167.094C150.258 167.245 150.526 167.336 150.609 167.367C150.938 167.482 151.201 167.581 151.398 167.664C151.596 167.747 151.807 167.859 152.031 168C152.26 168.135 152.435 168.279 152.555 168.43C152.68 168.581 152.781 168.771 152.859 169C152.943 169.224 152.984 169.479 152.984 169.766C152.984 170.193 152.904 170.568 152.742 170.891C152.581 171.208 152.362 171.458 152.086 171.641C151.81 171.818 151.51 171.951 151.188 172.039C150.865 172.128 150.518 172.172 150.148 172.172Z" fill="#3A3A3A"/>
<defs>
<filter id="filter0_d" x="0" y="0" width="249" height="247" filterUnits="userSpaceOnUse" color-interpolation-filters="sRGB">
<feFlood flood-opacity="0" result="BackgroundImageFix"/>
<feColorMatrix in="SourceAlpha" type="matrix" values="0 0 0 0 0 0 0 0 0 0 0 0 0 0 0 0 0 0 127 0"/>
<feOffset dy="4"/>
<feGaussianBlur stdDeviation="25"/>
<feColorMatrix type="matrix" values="0 0 0 0 0 0 0 0 0 0 0 0 0 0 0 0 0 0 0.1 0"/>
<feBlend mode="normal" in2="BackgroundImageFix" result="effect1_dropShadow"/>
<feBlend mode="normal" in="SourceGraphic" in2="effect1_dropShadow" result="shape"/>
</filter>
</defs>
</svg>
