<svg width="249" height="247" viewBox="0 0 249 247" fill="none" xmlns="http://www.w3.org/2000/svg">
<g opacity="0.6" filter="url(#filter0_d)">
<rect x="50" y="46" width="149" height="147" fill="white"/>
</g>
<path d="M107.594 172L104.484 160.625H106.086L108.094 168.469L108.516 170.305C108.865 169.008 109.404 167.154 110.133 164.742C110.862 162.326 111.273 160.953 111.367 160.625H112.859C112.958 160.948 113.372 162.318 114.102 164.734C114.831 167.146 115.378 168.995 115.742 170.281C116.029 168.995 116.469 167.154 117.062 164.758C117.656 162.362 117.997 160.984 118.086 160.625H119.625L116.602 172H114.859L112.086 162.633L109.312 172H107.594ZM121.305 161.961V160.625H122.727V161.961H121.305ZM121.297 172V163.984H122.727V172H121.297ZM125.398 172V166.203C125.398 165.849 125.391 165.487 125.375 165.117C125.365 164.747 125.352 164.466 125.336 164.273L125.312 163.984H126.797L126.812 165.242C127.089 164.784 127.474 164.427 127.969 164.172C128.469 163.911 128.995 163.781 129.547 163.781C130.557 163.781 131.302 164.089 131.781 164.703C132.26 165.312 132.5 166.24 132.5 167.484V172H131.062V167.492C131.062 166.622 130.932 165.982 130.672 165.57C130.411 165.159 129.953 164.953 129.297 164.953C128.693 164.953 128.143 165.159 127.648 165.57C127.154 165.977 126.885 166.445 126.844 166.977V172H125.398ZM136.047 167.211H140.648C140.596 166.477 140.383 165.911 140.008 165.516C139.633 165.12 139.133 164.922 138.508 164.922C137.852 164.922 137.302 165.125 136.859 165.531C136.422 165.938 136.151 166.497 136.047 167.211ZM138.688 172.172C137.411 172.172 136.398 171.794 135.648 171.039C134.898 170.279 134.523 169.271 134.523 168.016C134.523 166.781 134.883 165.768 135.602 164.977C136.326 164.18 137.281 163.781 138.469 163.781C139.219 163.781 139.859 163.956 140.391 164.305C140.927 164.654 141.323 165.128 141.578 165.727C141.839 166.326 141.969 167.021 141.969 167.812C141.969 167.911 141.961 168.039 141.945 168.195H136.008C136.023 169.091 136.281 169.784 136.781 170.273C137.281 170.758 137.943 171 138.766 171C139.724 171 140.573 170.703 141.312 170.109L141.742 171.172C140.883 171.839 139.865 172.172 138.688 172.172Z" fill="#3A3A3A"/>
<path d="M109.68 115.242L108.73 104.582C108.658 103.787 108.003 103.187 107.204 103.187H93.5073C92.7089 103.187 92.053 103.787 91.9815 104.583L91.0309 115.242C90.798 117.852 91.6791 120.459 93.4481 122.392C94.978 124.065 97.0679 125.119 99.3001 125.373V135.412C98.776 135.542 98.2783 135.767 97.8287 136.085L95.3806 137.816C94.7545 138.259 94.4899 139.047 94.722 139.778C94.9542 140.509 95.6257 141 96.3924 141H104.319C105.086 141 105.757 140.509 105.989 139.778C106.221 139.048 105.957 138.259 105.331 137.816L102.882 136.085C102.433 135.767 101.935 135.542 101.411 135.412V125.374C103.643 125.119 105.733 124.065 107.263 122.392C109.032 120.459 109.913 117.852 109.68 115.242ZM94.0372 105.298H106.674L107.384 113.256H93.3276L94.0372 105.298ZM101.664 137.809L103.191 138.889H97.5202L99.0475 137.809C99.4323 137.537 99.8845 137.393 100.356 137.393C100.827 137.393 101.279 137.537 101.664 137.809ZM105.706 120.968C104.315 122.487 102.415 123.324 100.356 123.324C98.2959 123.324 96.3959 122.487 95.0057 120.968C93.6155 119.448 92.9506 117.481 93.1337 115.429L93.1393 115.367H107.572L107.578 115.429C107.761 117.481 107.096 119.448 105.706 120.968Z" fill="#EC3892"/>
<path d="M156.969 115.242L156.018 104.582C155.947 103.787 155.291 103.187 154.493 103.187H140.796C139.998 103.187 139.342 103.787 139.27 104.583L138.32 115.242C138.087 117.852 138.968 120.459 140.737 122.392C142.267 124.065 144.357 125.119 146.589 125.373V135.412C146.065 135.542 145.567 135.767 145.118 136.085L142.669 137.816C142.043 138.259 141.779 139.047 142.011 139.778C142.243 140.509 142.914 141 143.681 141H151.608C152.374 141 153.046 140.509 153.278 139.778C153.51 139.047 153.245 138.259 152.619 137.816L150.171 136.085C149.722 135.767 149.224 135.542 148.7 135.412V125.373C150.932 125.119 153.022 124.065 154.552 122.392C156.321 120.459 157.202 117.852 156.969 115.242ZM141.326 105.298H153.963L154.672 113.256H140.616L141.326 105.298ZM148.952 137.809L150.48 138.889H144.809L146.336 137.809C146.721 137.537 147.173 137.393 147.644 137.393C148.115 137.393 148.568 137.537 148.952 137.809ZM152.994 120.967C151.604 122.487 149.704 123.324 147.644 123.324C145.585 123.324 143.685 122.487 142.294 120.967C140.904 119.448 140.239 117.481 140.422 115.429L140.428 115.367H154.861L154.866 115.429C155.049 117.481 154.384 119.448 152.994 120.967Z" fill="#EC3892"/>
<path d="M131.193 95.7161C129.339 93.4716 128.317 90.6321 128.317 87.7204V82.456H128.459C129.575 82.456 130.482 81.5485 130.482 80.4331V78.9276C130.482 77.9703 129.813 77.1681 128.918 76.9592V71.4457C128.918 70.0972 127.821 69 126.473 69H121.527C120.179 69 119.082 70.0972 119.082 71.4457V76.9594C118.187 77.1682 117.518 77.9705 117.518 78.9276V80.4331C117.518 81.5485 118.425 82.456 119.541 82.456H119.683V87.7204C119.683 90.6319 118.661 93.4716 116.807 95.7162C114.641 98.3383 113.448 101.655 113.448 105.057C113.448 105.639 113.92 106.112 114.503 106.112C115.086 106.112 115.559 105.639 115.559 105.057C115.559 102.145 116.58 99.3054 118.434 97.0607C120.601 94.4386 121.794 91.1216 121.794 87.7204V82.456H126.206V87.7204C126.206 91.1217 127.399 94.4389 129.566 97.0607C131.42 99.3054 132.441 102.145 132.441 105.057V109.576H122.506C121.207 109.576 120.15 110.633 120.15 111.932V122.936C120.15 124.235 121.207 125.292 122.506 125.292H132.441V129.508C132.441 130.091 132.914 130.563 133.497 130.563C134.08 130.563 134.552 130.091 134.552 129.508V105.057C134.552 101.655 133.359 98.3382 131.193 95.7161ZM121.527 71.1112H126.473C126.657 71.1112 126.807 71.2613 126.807 71.4457V76.9047H121.193V71.4457H121.193C121.193 71.2613 121.343 71.1112 121.527 71.1112ZM119.629 80.3448V79.0157H128.371V80.3448H119.629ZM132.441 123.181H122.506C122.371 123.181 122.261 123.071 122.261 122.936V111.932C122.261 111.797 122.371 111.687 122.506 111.687H132.441V123.181Z" fill="#EC3892"/>
<path d="M133.497 133.363C132.914 133.363 132.442 133.836 132.442 134.419V136.93C132.442 137.96 131.603 138.799 130.572 138.799H117.428C116.397 138.799 115.559 137.96 115.559 136.93V109.977C115.559 109.395 115.086 108.922 114.503 108.922C113.92 108.922 113.448 109.395 113.448 109.977V136.93C113.448 139.124 115.233 140.91 117.428 140.91H130.572C132.767 140.91 134.553 139.124 134.553 136.93V134.419C134.553 133.836 134.08 133.363 133.497 133.363Z" fill="#EC3892"/>
<defs>
<filter id="filter0_d" x="0" y="0" width="249" height="247" filterUnits="userSpaceOnUse" color-interpolation-filters="sRGB">
<feFlood flood-opacity="0" result="BackgroundImageFix"/>
<feColorMatrix in="SourceAlpha" type="matrix" values="0 0 0 0 0 0 0 0 0 0 0 0 0 0 0 0 0 0 127 0"/>
<feOffset dy="4"/>
<feGaussianBlur stdDeviation="25"/>
<feColorMatrix type="matrix" values="0 0 0 0 0 0 0 0 0 0 0 0 0 0 0 0 0 0 0.1 0"/>
<feBlend mode="normal" in2="BackgroundImageFix" result="effect1_dropShadow"/>
<feBlend mode="normal" in="SourceGraphic" in2="effect1_dropShadow" result="shape"/>
</filter>
</defs>
</svg>
