<svg width="249" height="247" viewBox="0 0 249 247" fill="none" xmlns="http://www.w3.org/2000/svg">
<g opacity="0.6" filter="url(#filter0_d)">
<rect x="50" y="46" width="149" height="147" fill="white"/>
</g>
<path d="M87.0625 174.547C86.4896 174.547 85.875 174.438 85.2188 174.219L85.4297 173.047C85.9766 173.208 86.4557 173.289 86.8672 173.289C87.4453 173.289 87.8411 173.117 88.0547 172.773C88.2682 172.435 88.375 171.865 88.375 171.062V160.625H89.8672V171.055C89.8672 172.258 89.6328 173.141 89.1641 173.703C88.6953 174.266 87.9948 174.547 87.0625 174.547ZM93.7266 167.211H98.3281C98.276 166.477 98.0625 165.911 97.6875 165.516C97.3125 165.12 96.8125 164.922 96.1875 164.922C95.5312 164.922 94.9818 165.125 94.5391 165.531C94.1016 165.938 93.8307 166.497 93.7266 167.211ZM96.3672 172.172C95.0911 172.172 94.0781 171.794 93.3281 171.039C92.5781 170.279 92.2031 169.271 92.2031 168.016C92.2031 166.781 92.5625 165.768 93.2812 164.977C94.0052 164.18 94.9609 163.781 96.1484 163.781C96.8984 163.781 97.5391 163.956 98.0703 164.305C98.6068 164.654 99.0026 165.128 99.2578 165.727C99.5182 166.326 99.6484 167.021 99.6484 167.812C99.6484 167.911 99.6406 168.039 99.625 168.195H93.6875C93.7031 169.091 93.9609 169.784 94.4609 170.273C94.9609 170.758 95.6224 171 96.4453 171C97.4036 171 98.2526 170.703 98.9922 170.109L99.4219 171.172C98.5625 171.839 97.5443 172.172 96.3672 172.172ZM103.43 172L100.766 163.984H102.297C102.375 164.245 102.651 165.159 103.125 166.727C103.599 168.289 103.964 169.484 104.219 170.312C104.495 169.484 104.893 168.297 105.414 166.75C105.94 165.203 106.253 164.281 106.352 163.984H107.75C107.844 164.276 108.143 165.201 108.648 166.758C109.154 168.31 109.542 169.497 109.812 170.32C110.057 169.497 110.404 168.312 110.852 166.766C111.305 165.219 111.576 164.292 111.664 163.984H113.062L110.398 172H109.047C108.979 171.797 108.685 170.909 108.164 169.336C107.643 167.758 107.247 166.555 106.977 165.727C106.695 166.56 106.276 167.758 105.719 169.32C105.167 170.878 104.852 171.771 104.773 172H103.43ZM115.617 167.211H120.219C120.167 166.477 119.953 165.911 119.578 165.516C119.203 165.12 118.703 164.922 118.078 164.922C117.422 164.922 116.872 165.125 116.43 165.531C115.992 165.938 115.721 166.497 115.617 167.211ZM118.258 172.172C116.982 172.172 115.969 171.794 115.219 171.039C114.469 170.279 114.094 169.271 114.094 168.016C114.094 166.781 114.453 165.768 115.172 164.977C115.896 164.18 116.852 163.781 118.039 163.781C118.789 163.781 119.43 163.956 119.961 164.305C120.497 164.654 120.893 165.128 121.148 165.727C121.409 166.326 121.539 167.021 121.539 167.812C121.539 167.911 121.531 168.039 121.516 168.195H115.578C115.594 169.091 115.852 169.784 116.352 170.273C116.852 170.758 117.513 171 118.336 171C119.294 171 120.143 170.703 120.883 170.109L121.312 171.172C120.453 171.839 119.435 172.172 118.258 172.172ZM123.797 172V160.391H125.234V172H123.797ZM128.836 167.211H133.438C133.385 166.477 133.172 165.911 132.797 165.516C132.422 165.12 131.922 164.922 131.297 164.922C130.641 164.922 130.091 165.125 129.648 165.531C129.211 165.938 128.94 166.497 128.836 167.211ZM131.477 172.172C130.201 172.172 129.188 171.794 128.438 171.039C127.688 170.279 127.312 169.271 127.312 168.016C127.312 166.781 127.672 165.768 128.391 164.977C129.115 164.18 130.07 163.781 131.258 163.781C132.008 163.781 132.648 163.956 133.18 164.305C133.716 164.654 134.112 165.128 134.367 165.727C134.628 166.326 134.758 167.021 134.758 167.812C134.758 167.911 134.75 168.039 134.734 168.195H128.797C128.812 169.091 129.07 169.784 129.57 170.273C130.07 170.758 130.732 171 131.555 171C132.513 171 133.362 170.703 134.102 170.109L134.531 171.172C133.672 171.839 132.654 172.172 131.477 172.172ZM137.031 172V165.953C137.031 165.776 137.021 165.523 137 165.195C136.984 164.867 136.969 164.583 136.953 164.344L136.93 163.984H138.453L138.469 165.234C138.953 164.276 139.667 163.797 140.609 163.797C140.906 163.797 141.177 163.828 141.422 163.891L141.414 165.164C141.107 165.081 140.812 165.039 140.531 165.039C139.917 165.039 139.422 165.255 139.047 165.688C138.672 166.115 138.484 166.732 138.484 167.539V172H137.031ZM143.266 161.961V160.625H144.688V161.961H143.266ZM143.258 172V163.984H144.688V172H143.258ZM148.289 167.211H152.891C152.839 166.477 152.625 165.911 152.25 165.516C151.875 165.12 151.375 164.922 150.75 164.922C150.094 164.922 149.544 165.125 149.102 165.531C148.664 165.938 148.393 166.497 148.289 167.211ZM150.93 172.172C149.654 172.172 148.641 171.794 147.891 171.039C147.141 170.279 146.766 169.271 146.766 168.016C146.766 166.781 147.125 165.768 147.844 164.977C148.568 164.18 149.523 163.781 150.711 163.781C151.461 163.781 152.102 163.956 152.633 164.305C153.169 164.654 153.565 165.128 153.82 165.727C154.081 166.326 154.211 167.021 154.211 167.812C154.211 167.911 154.203 168.039 154.188 168.195H148.25C148.266 169.091 148.523 169.784 149.023 170.273C149.523 170.758 150.185 171 151.008 171C151.966 171 152.815 170.703 153.555 170.109L153.984 171.172C153.125 171.839 152.107 172.172 150.93 172.172ZM159.133 172.172C158.44 172.172 157.828 172.068 157.297 171.859C156.771 171.651 156.362 171.432 156.07 171.203L156.469 170.133C156.766 170.352 157.143 170.549 157.602 170.727C158.065 170.904 158.536 170.992 159.016 170.992C160.078 170.992 160.609 170.602 160.609 169.82C160.609 169.492 160.49 169.247 160.25 169.086C160.01 168.924 159.544 168.727 158.852 168.492L158.164 168.258C157.898 168.164 157.672 168.076 157.484 167.992C157.302 167.909 157.117 167.805 156.93 167.68C156.742 167.549 156.591 167.411 156.477 167.266C156.362 167.115 156.268 166.935 156.195 166.727C156.128 166.513 156.094 166.273 156.094 166.008C156.094 165.628 156.172 165.292 156.328 165C156.49 164.703 156.708 164.471 156.984 164.305C157.26 164.133 157.565 164.005 157.898 163.922C158.232 163.833 158.591 163.789 158.977 163.789C160.034 163.789 160.924 164.021 161.648 164.484L161.25 165.516C160.547 165.141 159.844 164.953 159.141 164.953C158.625 164.953 158.227 165.042 157.945 165.219C157.664 165.396 157.523 165.646 157.523 165.969C157.523 166.26 157.607 166.477 157.773 166.617C157.945 166.753 158.284 166.911 158.789 167.094C159.242 167.245 159.51 167.336 159.594 167.367C159.922 167.482 160.185 167.581 160.383 167.664C160.581 167.747 160.792 167.859 161.016 168C161.245 168.135 161.419 168.279 161.539 168.43C161.664 168.581 161.766 168.771 161.844 169C161.927 169.224 161.969 169.479 161.969 169.766C161.969 170.193 161.888 170.568 161.727 170.891C161.565 171.208 161.346 171.458 161.07 171.641C160.794 171.818 160.495 171.951 160.172 172.039C159.849 172.128 159.503 172.172 159.133 172.172Z" fill="#3A3A3A"/>
<g clip-path="url(#clip0)">
<path d="M152.217 83.9441L143.556 82.0987C143.461 82.0784 143.368 82.0553 143.274 82.0326C143.215 82.0123 143.155 81.9973 143.092 81.9874C139.025 80.9222 136.018 77.4746 135.54 73.265L135.443 72.0833C135.435 71.987 135.414 71.8932 135.381 71.8042C135.38 71.7969 135.377 71.79 135.375 71.7827C135.371 71.7643 135.365 71.746 135.36 71.7278C135.353 71.7052 135.347 71.6827 135.339 71.6605C135.332 71.6423 135.326 71.6243 135.319 71.6065C135.311 71.585 135.302 71.5637 135.293 71.5428C135.285 71.5252 135.277 71.5076 135.268 71.4903C135.258 71.4697 135.248 71.4493 135.237 71.4292C135.228 71.4123 135.218 71.3954 135.209 71.3788C135.197 71.3588 135.185 71.3393 135.172 71.3198C135.161 71.3036 135.151 71.2874 135.14 71.2715C135.127 71.2521 135.112 71.2331 135.098 71.2141C135.087 71.199 135.076 71.1836 135.064 71.1689C135.048 71.1492 135.031 71.1302 135.014 71.1109C135.003 71.0973 134.991 71.0835 134.979 71.07C134.958 71.0471 134.936 71.0249 134.914 71.0026C134.899 70.9883 134.885 70.9741 134.87 70.9602C134.844 70.9353 134.817 70.9105 134.789 70.8865C134.775 70.8737 134.759 70.8615 134.744 70.8489C134.724 70.8323 134.704 70.8158 134.683 70.7996C134.666 70.7861 134.648 70.773 134.63 70.7599C134.61 70.7453 134.591 70.7307 134.571 70.7163C134.552 70.703 134.532 70.69 134.513 70.677C134.493 70.6633 134.472 70.6495 134.452 70.6362C134.432 70.6232 134.411 70.6107 134.391 70.5981C134.37 70.5853 134.349 70.5723 134.327 70.5598C134.306 70.5473 134.285 70.5349 134.263 70.5227C134.241 70.5105 134.22 70.4985 134.197 70.4865C134.175 70.4746 134.153 70.4626 134.131 70.451C134.108 70.4393 134.085 70.4278 134.062 70.4164C134.04 70.405 134.017 70.3935 133.993 70.3823C133.97 70.3712 133.946 70.3603 133.923 70.3493C133.899 70.3385 133.876 70.3275 133.852 70.3168C133.828 70.3061 133.804 70.2957 133.779 70.2852C133.755 70.2748 133.731 70.2642 133.706 70.254C133.682 70.2437 133.656 70.2338 133.631 70.2237C133.607 70.2139 133.582 70.2037 133.557 70.1942C133.531 70.1839 133.504 70.1741 133.477 70.1641C133.43 70.1464 133.382 70.1289 133.334 70.1119C133.308 70.1028 133.282 70.0936 133.256 70.0848C133.229 70.0756 133.202 70.0668 133.175 70.0578C133.15 70.0493 133.124 70.0409 133.098 70.0326C133.071 70.0237 133.043 70.0153 133.016 70.0067C132.99 69.9987 132.964 69.9907 132.939 69.983C132.911 69.9745 132.883 69.9664 132.855 69.9581C132.829 69.9505 132.803 69.9429 132.777 69.9354C132.749 69.9274 132.721 69.9197 132.693 69.9118C132.666 69.9045 132.64 69.8972 132.613 69.89C132.586 69.8826 132.558 69.8751 132.53 69.8678C132.503 69.8606 132.476 69.8536 132.449 69.8466C132.421 69.8395 132.394 69.8325 132.366 69.8256C132.339 69.8187 132.311 69.8118 132.283 69.8051C132.256 69.7985 132.229 69.7917 132.202 69.7853C132.174 69.7785 132.146 69.772 132.118 69.7656C132.091 69.7592 132.064 69.7529 132.037 69.7467C132.008 69.7402 131.98 69.7338 131.951 69.7275C131.925 69.7215 131.899 69.7156 131.873 69.7099C131.843 69.7033 131.813 69.6969 131.783 69.6905C131.758 69.6851 131.734 69.6798 131.709 69.6746C131.672 69.6667 131.634 69.659 131.597 69.6512C131.581 69.6479 131.565 69.6445 131.549 69.6413C129.527 69.2278 126.854 69 124.021 69C121.188 69 118.515 69.2278 116.493 69.6414C116.439 69.6524 116.386 69.6635 116.332 69.675C116.312 69.6794 116.291 69.6837 116.271 69.6882C116.237 69.6954 116.203 69.7027 116.169 69.7102C116.145 69.7155 116.121 69.721 116.097 69.7263C116.067 69.7331 116.036 69.7398 116.006 69.7469C115.981 69.7526 115.955 69.7585 115.93 69.7646C115.9 69.7715 115.871 69.7785 115.841 69.7857C115.815 69.7917 115.79 69.7979 115.765 69.8041C115.735 69.8113 115.706 69.8186 115.676 69.8259C115.651 69.8324 115.625 69.8388 115.599 69.8454C115.57 69.8529 115.541 69.8605 115.512 69.8681C115.486 69.875 115.46 69.8817 115.434 69.8888C115.406 69.8965 115.377 69.9044 115.349 69.9122C115.323 69.9194 115.297 69.9266 115.272 69.9339C115.243 69.9422 115.214 69.9506 115.185 69.9591C115.16 69.9665 115.135 69.9738 115.11 69.9814C115.08 69.9904 115.051 69.9996 115.021 70.0087C114.998 70.016 114.974 70.0233 114.95 70.0308C114.913 70.0427 114.876 70.055 114.839 70.0673C114.812 70.0762 114.786 70.0852 114.759 70.0943C114.72 70.1078 114.681 70.1215 114.642 70.1355C114.621 70.1431 114.6 70.1512 114.579 70.1589C114.549 70.17 114.519 70.1811 114.49 70.1925C114.467 70.2011 114.446 70.2099 114.424 70.2187C114.396 70.2296 114.368 70.2407 114.341 70.252C114.319 70.2613 114.296 70.2708 114.274 70.2804C114.248 70.2916 114.222 70.303 114.196 70.3146C114.174 70.3244 114.152 70.3342 114.13 70.3442C114.104 70.356 114.079 70.368 114.054 70.3801C114.032 70.3904 114.011 70.4006 113.99 70.411C113.965 70.4235 113.94 70.4361 113.916 70.4489C113.896 70.4594 113.875 70.47 113.855 70.4806C113.831 70.4939 113.806 70.5075 113.782 70.521C113.763 70.5318 113.744 70.5425 113.725 70.5536C113.701 70.5681 113.676 70.5827 113.652 70.5976C113.635 70.6083 113.618 70.6189 113.601 70.6297C113.575 70.6463 113.549 70.6632 113.524 70.6802C113.51 70.6899 113.495 70.6993 113.481 70.7092C113.447 70.7335 113.413 70.7584 113.38 70.7837C113.376 70.7865 113.372 70.7892 113.368 70.7921C113.332 70.8203 113.297 70.8491 113.262 70.8783C113.251 70.8882 113.24 70.8983 113.229 70.9083C113.207 70.9282 113.184 70.9484 113.163 70.9689C113.15 70.981 113.138 70.9934 113.126 71.0056C113.107 71.0246 113.088 71.0436 113.07 71.0631C113.058 71.0765 113.046 71.0903 113.034 71.1039C113.017 71.1229 113.001 71.142 112.985 71.1615C112.973 71.1758 112.962 71.1904 112.951 71.2049C112.936 71.2244 112.922 71.2442 112.908 71.2642C112.897 71.2791 112.887 71.2942 112.877 71.3093C112.864 71.3297 112.851 71.3504 112.838 71.3714C112.829 71.3867 112.82 71.4022 112.811 71.4178C112.8 71.4393 112.789 71.4612 112.778 71.4833C112.77 71.4989 112.762 71.5145 112.755 71.5303C112.744 71.5536 112.735 71.5774 112.726 71.6013C112.72 71.6166 112.713 71.6317 112.708 71.6471C112.698 71.6737 112.69 71.701 112.682 71.7283C112.678 71.7416 112.674 71.7548 112.67 71.7683C112.669 71.7707 112.668 71.773 112.668 71.7752C112.632 71.8686 112.609 71.9678 112.6 72.0703L112.502 73.2646C112.025 77.4742 109.017 80.9218 104.95 81.987C104.887 81.9968 104.827 82.0119 104.768 82.0321C104.675 82.0549 104.581 82.078 104.486 82.0982L95.1265 84.0926C92.1603 84.7247 90.1316 87.3822 90.3031 90.4116C90.471 93.3816 90.9172 98.1525 92.8439 105.263C92.9962 105.826 93.5754 106.158 94.1387 106.006C94.7014 105.853 95.034 105.274 94.8815 104.711C93.0066 97.791 92.5735 93.1678 92.4109 90.2923C92.2987 88.3099 93.6259 86.5708 95.5665 86.1574L104.108 84.3373C104.32 87.1991 105.219 90.0094 106.742 92.5354C106.927 92.8421 107.124 93.1436 107.327 93.4427V95.7888V98.2773C107.304 98.3099 107.28 98.3421 107.26 98.377L104.787 102.647C104.544 103.066 104.544 103.587 104.787 104.007L107.26 108.277C107.502 108.694 107.952 108.953 108.434 108.953C108.916 108.953 109.366 108.694 109.608 108.277L112.081 104.007C112.324 103.588 112.324 103.067 112.081 102.647L109.608 98.3771C109.56 98.2943 109.501 98.2196 109.438 98.15V96.0772C111.403 98.1797 113.877 100.056 116.843 101.678C118.773 102.734 120.864 103.335 122.978 103.484C122.971 103.535 122.966 103.586 122.966 103.639V105.37C121.619 104.824 120.028 104.941 118.596 105.793C117.707 106.322 117.056 107.197 116.811 108.192C115.325 114.218 123.296 117.413 123.637 117.546C123.76 117.594 123.891 117.618 124.021 117.618C124.152 117.618 124.282 117.594 124.406 117.546C124.488 117.514 126.446 116.739 128.258 115.273C130.833 113.192 131.861 110.743 131.232 108.192C130.986 107.197 130.335 106.322 129.446 105.793C128.015 104.941 126.424 104.824 125.077 105.37V103.639C125.077 103.586 125.072 103.535 125.064 103.484C127.178 103.335 129.269 102.734 131.199 101.678C134.114 100.084 136.554 98.2451 138.502 96.1869V98.2773C138.479 98.3099 138.455 98.3421 138.435 98.377L135.961 102.647C135.718 103.066 135.718 103.587 135.961 104.007L138.435 108.277C138.677 108.694 139.127 108.953 139.609 108.953C140.091 108.953 140.54 108.694 140.782 108.277L143.256 104.007C143.499 103.588 143.499 103.067 143.256 102.647L140.782 98.3771C140.734 98.2943 140.676 98.2196 140.613 98.15V93.5919C140.613 93.5918 140.613 93.5918 140.613 93.5917C140.853 93.2442 141.085 92.893 141.3 92.5354C142.824 90.0094 143.723 87.1991 143.934 84.3373L151.777 86.0085C154.11 86.5057 155.747 88.6705 155.585 91.044C155.293 95.3026 154.498 99.7811 153.154 104.735C153.002 105.298 153.334 105.878 153.897 106.03C153.989 106.055 154.082 106.067 154.174 106.067C154.638 106.067 155.064 105.758 155.192 105.288C156.572 100.199 157.389 95.5866 157.691 91.1881C157.925 87.7734 155.571 84.659 152.217 83.9441ZM115.574 72.0531C116.462 71.7717 117.931 71.472 119.932 71.2881C119.968 71.2849 120.005 71.2815 120.042 71.2783C120.112 71.2721 120.183 71.266 120.254 71.2601C120.357 71.2517 120.461 71.2434 120.566 71.2355C120.576 71.2348 120.587 71.234 120.597 71.2333C121.275 71.1833 121.98 71.1483 122.7 71.1289C122.704 71.1288 122.71 71.1286 122.714 71.1285C122.847 71.125 122.981 71.122 123.115 71.1195C123.174 71.1184 123.234 71.1177 123.293 71.1168C123.379 71.1156 123.466 71.1142 123.552 71.1133C123.707 71.1119 123.863 71.1111 124.021 71.1111C124.181 71.1111 124.339 71.1119 124.496 71.1133C124.532 71.1136 124.568 71.1142 124.605 71.1146C124.723 71.116 124.84 71.1175 124.955 71.1198C125.001 71.1206 125.046 71.1216 125.092 71.1226C125.199 71.1248 125.305 71.1275 125.41 71.1303C125.455 71.1316 125.5 71.1327 125.544 71.1341C125.656 71.1375 125.767 71.1414 125.877 71.1455C125.91 71.1468 125.943 71.1479 125.976 71.1492C126.264 71.1606 126.543 71.1745 126.815 71.1905C126.848 71.1925 126.879 71.1946 126.912 71.1966C127.013 71.2027 127.115 71.2094 127.214 71.2161C127.254 71.2188 127.293 71.2217 127.333 71.2245C127.425 71.2312 127.516 71.238 127.607 71.2451C127.646 71.2482 127.684 71.2511 127.723 71.2544C127.818 71.2621 127.911 71.2701 128.004 71.2784C128.034 71.2811 128.065 71.2838 128.095 71.2864C128.34 71.3088 128.576 71.333 128.805 71.3586C128.835 71.3618 128.863 71.3653 128.892 71.3685C128.976 71.3781 129.059 71.388 129.141 71.3979C129.176 71.4022 129.21 71.4065 129.245 71.4109C129.32 71.4203 129.395 71.43 129.468 71.4397C129.502 71.4442 129.537 71.4488 129.57 71.4535C129.647 71.464 129.722 71.4747 129.797 71.4855C129.824 71.4895 129.851 71.4933 129.877 71.4971C130.079 71.5269 130.272 71.5577 130.457 71.5893C130.482 71.5937 130.507 71.5982 130.532 71.6025C130.597 71.6139 130.662 71.6255 130.726 71.6371C130.756 71.6426 130.785 71.6482 130.815 71.6539C130.873 71.6647 130.93 71.6758 130.986 71.6868C131.016 71.6925 131.045 71.6982 131.073 71.7039C131.131 71.7155 131.187 71.7273 131.243 71.739C131.267 71.744 131.291 71.7491 131.315 71.7541C131.47 71.7876 131.618 71.8215 131.757 71.8555C131.779 71.8609 131.8 71.8664 131.822 71.8718C131.869 71.8835 131.915 71.8952 131.959 71.9069C131.984 71.9133 132.008 71.9198 132.032 71.9263C132.073 71.9371 132.113 71.9481 132.152 71.9589C132.175 71.9654 132.198 71.9718 132.22 71.9783C132.26 71.9897 132.299 72.0011 132.337 72.0125C132.356 72.0181 132.375 72.0239 132.394 72.0295C132.444 72.045 132.493 72.0603 132.54 72.0756C132.546 72.0779 132.553 72.08 132.56 72.0822C132.608 72.0981 132.654 72.114 132.699 72.1298C132.715 72.1357 132.731 72.1414 132.747 72.1472C132.768 72.1549 132.788 72.1625 132.808 72.1701C132.374 72.3403 131.65 72.5558 130.47 72.7574C128.673 73.0642 126.382 73.2334 124.021 73.2334C119.503 73.2334 116.484 72.6477 115.233 72.1745C115.331 72.1362 115.445 72.0954 115.574 72.0531ZM110.035 103.328L108.434 106.092L106.833 103.328L108.434 100.563L110.035 103.328ZM128.366 107.608C128.773 107.85 129.07 108.247 129.182 108.698C130.076 112.324 125.413 114.77 124.02 115.412C122.623 114.772 117.963 112.337 118.86 108.698C118.971 108.247 119.269 107.85 119.675 107.608C120.219 107.284 120.745 107.147 121.229 107.147C122.056 107.147 122.756 107.549 123.19 108.104C123.39 108.359 123.696 108.509 124.021 108.509C124.346 108.509 124.652 108.359 124.852 108.104C125.54 107.225 126.894 106.731 128.366 107.608ZM141.21 103.328L139.609 106.092L138.007 103.328L139.609 100.563L141.21 103.328ZM139.493 91.4457C137.528 94.7034 134.397 97.5231 130.186 99.8263C126.326 101.938 121.717 101.938 117.856 99.8263C113.646 97.5233 110.515 94.7036 108.55 91.4457C107.112 89.0616 106.322 86.4999 106.192 83.821C110.532 82.4041 113.745 78.6954 114.506 74.1583C115.126 74.3965 115.828 74.5672 116.493 74.7033C118.515 75.1169 121.189 75.3447 124.021 75.3447C126.854 75.3447 129.527 75.1169 131.549 74.7033C132.215 74.5672 132.916 74.3965 133.537 74.1583C134.298 78.6954 137.511 82.4041 141.851 83.821C141.72 86.4999 140.93 89.0616 139.493 91.4457Z" fill="#EC3892"/>
<path d="M153.077 108.783C152.522 108.605 151.928 108.91 151.749 109.465C149.025 117.933 144.871 127.507 139.404 137.919C139.089 138.517 138.473 138.889 137.794 138.889H110.248C109.57 138.889 108.953 138.517 108.639 137.919C103.159 127.484 98.9997 117.893 96.2757 109.411C96.0974 108.855 95.5029 108.55 94.9479 108.728C94.3928 108.907 94.0874 109.501 94.2657 110.056C97.0269 118.654 101.234 128.359 106.77 138.9C107.45 140.195 108.783 141 110.248 141H137.794C139.26 141 140.593 140.195 141.273 138.9C146.797 128.381 150.998 118.695 153.759 110.112C153.938 109.557 153.632 108.962 153.077 108.783Z" fill="#EC3892"/>
</g>
<defs>
<filter id="filter0_d" x="0" y="0" width="249" height="247" filterUnits="userSpaceOnUse" color-interpolation-filters="sRGB">
<feFlood flood-opacity="0" result="BackgroundImageFix"/>
<feColorMatrix in="SourceAlpha" type="matrix" values="0 0 0 0 0 0 0 0 0 0 0 0 0 0 0 0 0 0 127 0"/>
<feOffset dy="4"/>
<feGaussianBlur stdDeviation="25"/>
<feColorMatrix type="matrix" values="0 0 0 0 0 0 0 0 0 0 0 0 0 0 0 0 0 0 0.1 0"/>
<feBlend mode="normal" in2="BackgroundImageFix" result="effect1_dropShadow"/>
<feBlend mode="normal" in="SourceGraphic" in2="effect1_dropShadow" result="shape"/>
</filter>
<clipPath id="clip0">
<rect width="72" height="72" fill="white" transform="translate(88 69)"/>
</clipPath>
</defs>
</svg>
