<svg width="249" height="247" viewBox="0 0 249 247" fill="none" xmlns="http://www.w3.org/2000/svg">
<g opacity="0.6" filter="url(#filter0_d)">
<rect x="50" y="46" width="149" height="147" fill="white"/>
</g>
<path d="M93.0625 172.172C91.8385 172.172 90.7917 171.938 89.9219 171.469C89.0521 170.995 88.3984 170.336 87.9609 169.492C87.5286 168.643 87.3125 167.646 87.3125 166.5C87.3125 165.333 87.5573 164.289 88.0469 163.367C88.5417 162.445 89.237 161.724 90.1328 161.203C91.0286 160.682 92.0495 160.422 93.1953 160.422C94.6693 160.422 95.9167 160.802 96.9375 161.562L96.3359 162.602C95.4349 161.987 94.3984 161.68 93.2266 161.68C92.362 161.68 91.5964 161.885 90.9297 162.297C90.263 162.708 89.75 163.276 89.3906 164C89.0365 164.719 88.8594 165.531 88.8594 166.438C88.8594 167.802 89.224 168.891 89.9531 169.703C90.6823 170.51 91.7396 170.914 93.125 170.914C94.0677 170.914 94.8958 170.779 95.6094 170.508V167.289H92.7344V166.016H97.0938V171.344C95.8854 171.896 94.5417 172.172 93.0625 172.172ZM99.7578 161.961V160.625H101.18V161.961H99.7578ZM99.75 172V163.984H101.18V172H99.75ZM104.438 172V164.945H103.008V163.984H104.438V163.328C104.438 163.052 104.443 162.815 104.453 162.617C104.469 162.414 104.495 162.214 104.531 162.016C104.568 161.812 104.62 161.643 104.688 161.508C104.755 161.367 104.841 161.232 104.945 161.102C105.055 160.971 105.185 160.867 105.336 160.789C105.487 160.706 105.667 160.633 105.875 160.57C106.083 160.508 106.32 160.464 106.586 160.438C106.857 160.411 107.164 160.398 107.508 160.398H107.875L107.844 161.516C107.526 161.516 107.263 161.526 107.055 161.547C106.846 161.562 106.667 161.599 106.516 161.656C106.365 161.714 106.247 161.779 106.164 161.852C106.086 161.919 106.023 162.026 105.977 162.172C105.93 162.312 105.901 162.458 105.891 162.609C105.88 162.755 105.875 162.956 105.875 163.211V163.984H107.789V164.945H105.875V172H104.438ZM113.656 172H112.992C111.857 171.99 111.078 171.786 110.656 171.391C110.24 170.995 110.031 170.273 110.031 169.227V164.945H108.492V163.984H110.062V161.922L111.469 161.508V163.984H113.641V164.945H111.469V169.305C111.469 169.591 111.487 169.823 111.523 170C111.565 170.177 111.628 170.328 111.711 170.453C111.794 170.573 111.927 170.661 112.109 170.719C112.292 170.776 112.497 170.818 112.727 170.844C112.956 170.865 113.266 170.875 113.656 170.875V172ZM120.797 172V160.625H122.289V172H120.797ZM129.297 172H128.633C127.497 171.99 126.719 171.786 126.297 171.391C125.88 170.995 125.672 170.273 125.672 169.227V164.945H124.133V163.984H125.703V161.922L127.109 161.508V163.984H129.281V164.945H127.109V169.305C127.109 169.591 127.128 169.823 127.164 170C127.206 170.177 127.268 170.328 127.352 170.453C127.435 170.573 127.568 170.661 127.75 170.719C127.932 170.776 128.138 170.818 128.367 170.844C128.596 170.865 128.906 170.875 129.297 170.875V172ZM132.391 167.211H136.992C136.94 166.477 136.727 165.911 136.352 165.516C135.977 165.12 135.477 164.922 134.852 164.922C134.195 164.922 133.646 165.125 133.203 165.531C132.766 165.938 132.495 166.497 132.391 167.211ZM135.031 172.172C133.755 172.172 132.742 171.794 131.992 171.039C131.242 170.279 130.867 169.271 130.867 168.016C130.867 166.781 131.227 165.768 131.945 164.977C132.669 164.18 133.625 163.781 134.812 163.781C135.562 163.781 136.203 163.956 136.734 164.305C137.271 164.654 137.667 165.128 137.922 165.727C138.182 166.326 138.312 167.021 138.312 167.812C138.312 167.911 138.305 168.039 138.289 168.195H132.352C132.367 169.091 132.625 169.784 133.125 170.273C133.625 170.758 134.286 171 135.109 171C136.068 171 136.917 170.703 137.656 170.109L138.086 171.172C137.227 171.839 136.208 172.172 135.031 172.172ZM140.57 172V166.078C140.57 165.807 140.542 165.109 140.484 163.984H141.977L141.992 165.281C142.206 164.812 142.547 164.445 143.016 164.18C143.484 163.914 143.997 163.781 144.555 163.781C145.128 163.781 145.628 163.932 146.055 164.234C146.487 164.536 146.799 164.964 146.992 165.516C147.284 164.974 147.677 164.549 148.172 164.242C148.672 163.935 149.234 163.781 149.859 163.781C150.771 163.781 151.461 164.073 151.93 164.656C152.404 165.234 152.641 166.047 152.641 167.094V172H151.203V167.211C151.203 166.503 151.083 165.951 150.844 165.555C150.604 165.154 150.234 164.953 149.734 164.953C149.094 164.953 148.542 165.188 148.078 165.656C147.62 166.12 147.375 166.693 147.344 167.375V172H145.906V167.086C145.906 166.445 145.781 165.93 145.531 165.539C145.281 165.148 144.883 164.953 144.336 164.953C143.706 164.953 143.172 165.164 142.734 165.586C142.297 166.008 142.057 166.518 142.016 167.117V172H140.57ZM157.938 172.172C157.245 172.172 156.633 172.068 156.102 171.859C155.576 171.651 155.167 171.432 154.875 171.203L155.273 170.133C155.57 170.352 155.948 170.549 156.406 170.727C156.87 170.904 157.341 170.992 157.82 170.992C158.883 170.992 159.414 170.602 159.414 169.82C159.414 169.492 159.294 169.247 159.055 169.086C158.815 168.924 158.349 168.727 157.656 168.492L156.969 168.258C156.703 168.164 156.477 168.076 156.289 167.992C156.107 167.909 155.922 167.805 155.734 167.68C155.547 167.549 155.396 167.411 155.281 167.266C155.167 167.115 155.073 166.935 155 166.727C154.932 166.513 154.898 166.273 154.898 166.008C154.898 165.628 154.977 165.292 155.133 165C155.294 164.703 155.513 164.471 155.789 164.305C156.065 164.133 156.37 164.005 156.703 163.922C157.036 163.833 157.396 163.789 157.781 163.789C158.839 163.789 159.729 164.021 160.453 164.484L160.055 165.516C159.352 165.141 158.648 164.953 157.945 164.953C157.43 164.953 157.031 165.042 156.75 165.219C156.469 165.396 156.328 165.646 156.328 165.969C156.328 166.26 156.411 166.477 156.578 166.617C156.75 166.753 157.089 166.911 157.594 167.094C158.047 167.245 158.315 167.336 158.398 167.367C158.727 167.482 158.99 167.581 159.188 167.664C159.385 167.747 159.596 167.859 159.82 168C160.049 168.135 160.224 168.279 160.344 168.43C160.469 168.581 160.57 168.771 160.648 169C160.732 169.224 160.773 169.479 160.773 169.766C160.773 170.193 160.693 170.568 160.531 170.891C160.37 171.208 160.151 171.458 159.875 171.641C159.599 171.818 159.299 171.951 158.977 172.039C158.654 172.128 158.307 172.172 157.938 172.172Z" fill="#3A3A3A"/>
<path d="M153.158 101.617C152.575 101.617 152.102 102.09 152.102 102.673V136.329C152.102 136.946 151.6 137.448 150.983 137.448H97.0164C96.3996 137.448 95.8977 136.946 95.8977 136.329V102.673C95.8977 102.09 95.4252 101.617 94.8422 101.617C94.2591 101.617 93.7866 102.09 93.7866 102.673V136.329C93.7866 138.11 95.2355 139.559 97.0164 139.559H150.983C152.764 139.559 154.213 138.11 154.213 136.329V102.673C154.213 102.09 153.741 101.617 153.158 101.617Z" fill="#EC3892"/>
<path d="M157.271 87.35H140.933C141.051 87.2995 141.169 87.251 141.285 87.1992C146.26 84.9863 149.806 81.8483 150.77 78.805C151.281 77.1902 151.516 74.1315 147.347 71.7895C144.751 70.3309 142.021 70.054 139.234 70.967C134.621 72.4783 130.661 77.0172 127.889 81.0978C127.89 81.0981 127.89 81.0985 127.891 81.0989C126.787 80.328 125.446 79.8742 124 79.8742C122.555 79.8742 121.214 80.3277 120.111 81.0979C117.339 77.0174 113.379 72.4784 108.765 70.9671C105.979 70.0543 103.249 70.3309 100.652 71.7896C96.4843 74.1315 96.7195 77.1902 97.2305 78.8052C98.1939 81.8483 101.74 84.9863 106.715 87.1994C106.831 87.2511 106.95 87.2996 107.067 87.3501H90.7293C89.2244 87.35 88 88.5744 88 90.0792V96.1139C88 97.6187 89.2244 98.8431 90.7293 98.8431H117.185V121.149C117.185 121.569 117.434 121.949 117.819 122.116C117.955 122.176 118.098 122.204 118.24 122.204C118.502 122.204 118.76 122.107 118.959 121.922L124 117.242L129.041 121.923C129.348 122.208 129.796 122.284 130.181 122.117C130.566 121.949 130.814 121.569 130.814 121.149V98.8433H157.271C158.776 98.8433 160 97.6189 160 96.114V90.0794C160 88.5744 158.776 87.35 157.271 87.35ZM90.7293 96.7323C90.3882 96.7323 90.1109 96.455 90.1109 96.114V90.0794C90.1109 89.7383 90.3882 89.461 90.7293 89.461H117.185V96.7323H90.7293ZM117.186 86.6888V87.35H114.133C111.869 86.8889 109.644 86.1916 107.573 85.2703C103.207 83.3285 100.015 80.607 99.2433 78.1678C98.6788 76.3849 99.5009 74.8581 101.687 73.63C102.97 72.9089 104.258 72.5497 105.578 72.5497C106.406 72.5497 107.246 72.6909 108.106 72.9723C112.266 74.334 115.965 78.7078 118.557 82.5936C117.697 83.7345 117.186 85.153 117.186 86.6888ZM123.282 115.028L119.296 118.729V98.8433H128.703V118.729L124.718 115.028C124.313 114.652 123.687 114.652 123.282 115.028ZM128.704 96.7323H119.296V89.461H128.704V96.7323ZM128.704 87.35H119.296V86.6888C119.296 84.0951 121.407 81.9851 124 81.9851C126.594 81.9851 128.704 84.0951 128.704 86.6888V87.35ZM129.443 82.5937C132.035 78.708 135.734 74.3341 139.894 72.9724C142.126 72.2418 144.226 72.4571 146.314 73.63C148.499 74.8581 149.321 76.3849 148.757 78.1678C147.985 80.607 144.793 83.3285 140.427 85.2703C138.356 86.1915 136.131 86.8889 133.868 87.35H130.815V86.6888C130.814 85.153 130.303 83.7346 129.443 82.5937ZM157.271 96.7323H130.814V89.461H157.271C157.612 89.461 157.889 89.7383 157.889 90.0794V96.114H157.889C157.889 96.455 157.612 96.7323 157.271 96.7323Z" fill="#EC3892"/>
<defs>
<filter id="filter0_d" x="0" y="0" width="249" height="247" filterUnits="userSpaceOnUse" color-interpolation-filters="sRGB">
<feFlood flood-opacity="0" result="BackgroundImageFix"/>
<feColorMatrix in="SourceAlpha" type="matrix" values="0 0 0 0 0 0 0 0 0 0 0 0 0 0 0 0 0 0 127 0"/>
<feOffset dy="4"/>
<feGaussianBlur stdDeviation="25"/>
<feColorMatrix type="matrix" values="0 0 0 0 0 0 0 0 0 0 0 0 0 0 0 0 0 0 0.1 0"/>
<feBlend mode="normal" in2="BackgroundImageFix" result="effect1_dropShadow"/>
<feBlend mode="normal" in="SourceGraphic" in2="effect1_dropShadow" result="shape"/>
</filter>
</defs>
</svg>
