<svg width="249" height="247" viewBox="0 0 249 247" fill="none" xmlns="http://www.w3.org/2000/svg">
<g opacity="0.6" filter="url(#filter0_d)">
<rect x="50" y="46" width="149" height="147" fill="white"/>
</g>
<path d="M69.5859 172L66.4766 160.625H68.0781L70.0859 168.469L70.5078 170.305C70.8568 169.008 71.3958 167.154 72.125 164.742C72.8542 162.326 73.2656 160.953 73.3594 160.625H74.8516C74.9505 160.948 75.3646 162.318 76.0938 164.734C76.8229 167.146 77.3698 168.995 77.7344 170.281C78.0208 168.995 78.4609 167.154 79.0547 164.758C79.6484 162.362 79.9896 160.984 80.0781 160.625H81.6172L78.5938 172H76.8516L74.0781 162.633L71.3047 172H69.5859ZM84.2578 167.211H88.8594C88.8073 166.477 88.5938 165.911 88.2188 165.516C87.8438 165.12 87.3438 164.922 86.7188 164.922C86.0625 164.922 85.513 165.125 85.0703 165.531C84.6328 165.938 84.362 166.497 84.2578 167.211ZM86.8984 172.172C85.6224 172.172 84.6094 171.794 83.8594 171.039C83.1094 170.279 82.7344 169.271 82.7344 168.016C82.7344 166.781 83.0938 165.768 83.8125 164.977C84.5365 164.18 85.4922 163.781 86.6797 163.781C87.4297 163.781 88.0703 163.956 88.6016 164.305C89.138 164.654 89.5339 165.128 89.7891 165.727C90.0495 166.326 90.1797 167.021 90.1797 167.812C90.1797 167.911 90.1719 168.039 90.1562 168.195H84.2188C84.2344 169.091 84.4922 169.784 84.9922 170.273C85.4922 170.758 86.1536 171 86.9766 171C87.9349 171 88.7839 170.703 89.5234 170.109L89.9531 171.172C89.0938 171.839 88.0755 172.172 86.8984 172.172ZM95.7188 171C96.5052 171 97.112 170.721 97.5391 170.164C97.9661 169.607 98.1797 168.859 98.1797 167.922C98.1797 167.042 97.9635 166.328 97.5312 165.781C97.099 165.229 96.5026 164.953 95.7422 164.953C94.9818 164.953 94.3906 165.232 93.9688 165.789C93.5469 166.341 93.3359 167.073 93.3359 167.984C93.3359 168.891 93.5417 169.62 93.9531 170.172C94.3646 170.724 94.9531 171 95.7188 171ZM95.5078 172.172C94.4349 172.172 93.5547 171.794 92.8672 171.039C92.1849 170.279 91.8438 169.271 91.8438 168.016C91.8438 167.193 91.9896 166.466 92.2812 165.836C92.5729 165.201 93.0026 164.701 93.5703 164.336C94.1432 163.966 94.8151 163.781 95.5859 163.781C96.2005 163.781 96.737 163.919 97.1953 164.195C97.6536 164.471 97.9714 164.802 98.1484 165.188V160.391H99.5938V169.922C99.599 170.401 99.6172 171.094 99.6484 172H98.1875L98.1562 170.641C97.9948 171.057 97.6823 171.417 97.2188 171.719C96.7604 172.021 96.1901 172.172 95.5078 172.172ZM105.594 171C106.38 171 106.987 170.721 107.414 170.164C107.841 169.607 108.055 168.859 108.055 167.922C108.055 167.042 107.839 166.328 107.406 165.781C106.974 165.229 106.378 164.953 105.617 164.953C104.857 164.953 104.266 165.232 103.844 165.789C103.422 166.341 103.211 167.073 103.211 167.984C103.211 168.891 103.417 169.62 103.828 170.172C104.24 170.724 104.828 171 105.594 171ZM105.383 172.172C104.31 172.172 103.43 171.794 102.742 171.039C102.06 170.279 101.719 169.271 101.719 168.016C101.719 167.193 101.865 166.466 102.156 165.836C102.448 165.201 102.878 164.701 103.445 164.336C104.018 163.966 104.69 163.781 105.461 163.781C106.076 163.781 106.612 163.919 107.07 164.195C107.529 164.471 107.846 164.802 108.023 165.188V160.391H109.469V169.922C109.474 170.401 109.492 171.094 109.523 172H108.062L108.031 170.641C107.87 171.057 107.557 171.417 107.094 171.719C106.635 172.021 106.065 172.172 105.383 172.172ZM112.156 161.961V160.625H113.578V161.961H112.156ZM112.148 172V163.984H113.578V172H112.148ZM116.25 172V166.203C116.25 165.849 116.242 165.487 116.227 165.117C116.216 164.747 116.203 164.466 116.188 164.273L116.164 163.984H117.648L117.664 165.242C117.94 164.784 118.326 164.427 118.82 164.172C119.32 163.911 119.846 163.781 120.398 163.781C121.409 163.781 122.154 164.089 122.633 164.703C123.112 165.312 123.352 166.24 123.352 167.484V172H121.914V167.492C121.914 166.622 121.784 165.982 121.523 165.57C121.263 165.159 120.805 164.953 120.148 164.953C119.544 164.953 118.995 165.159 118.5 165.57C118.005 165.977 117.737 166.445 117.695 166.977V172H116.25ZM129.227 170.766C130.039 170.766 130.656 170.503 131.078 169.977C131.5 169.445 131.711 168.734 131.711 167.844C131.711 166.964 131.5 166.263 131.078 165.742C130.661 165.216 130.078 164.953 129.328 164.953C128.562 164.953 127.961 165.229 127.523 165.781C127.086 166.333 126.867 167.057 126.867 167.953C126.867 168.844 127.073 169.536 127.484 170.031C127.896 170.521 128.477 170.766 129.227 170.766ZM129.047 175.266C127.995 175.266 127.008 175.039 126.086 174.586L126.312 173.344C127.198 173.849 128.091 174.102 128.992 174.102C129.846 174.102 130.508 173.872 130.977 173.414C131.445 172.956 131.68 172.263 131.68 171.336V170.5C131.456 170.901 131.13 171.234 130.703 171.5C130.281 171.76 129.76 171.891 129.141 171.891C128.031 171.891 127.125 171.539 126.422 170.836C125.724 170.128 125.375 169.172 125.375 167.969C125.375 167.151 125.516 166.43 125.797 165.805C126.083 165.18 126.513 164.688 127.086 164.328C127.659 163.964 128.341 163.781 129.133 163.781C129.742 163.781 130.26 163.911 130.688 164.172C131.115 164.432 131.445 164.766 131.68 165.172L131.703 163.984H133.188C133.13 164.849 133.102 165.568 133.102 166.141V170.906C133.102 171.542 133.023 172.12 132.867 172.641C132.711 173.161 132.471 173.62 132.148 174.016C131.831 174.411 131.409 174.719 130.883 174.938C130.357 175.156 129.745 175.266 129.047 175.266ZM140.727 172V160.625H143.523C145.721 160.625 147.401 161.091 148.562 162.023C149.724 162.956 150.305 164.391 150.305 166.328C150.305 168.141 149.766 169.539 148.688 170.523C147.609 171.508 146.057 172 144.031 172H140.727ZM142.219 170.742H144.109C145.63 170.742 146.779 170.359 147.555 169.594C148.336 168.823 148.727 167.734 148.727 166.328C148.727 164.812 148.31 163.693 147.477 162.969C146.648 162.245 145.378 161.883 143.664 161.883H142.219V170.742ZM152.578 172V165.953C152.578 165.776 152.568 165.523 152.547 165.195C152.531 164.867 152.516 164.583 152.5 164.344L152.477 163.984H154L154.016 165.234C154.5 164.276 155.214 163.797 156.156 163.797C156.453 163.797 156.724 163.828 156.969 163.891L156.961 165.164C156.654 165.081 156.359 165.039 156.078 165.039C155.464 165.039 154.969 165.255 154.594 165.688C154.219 166.115 154.031 166.732 154.031 167.539V172H152.578ZM159.773 167.211H164.375C164.323 166.477 164.109 165.911 163.734 165.516C163.359 165.12 162.859 164.922 162.234 164.922C161.578 164.922 161.029 165.125 160.586 165.531C160.148 165.938 159.878 166.497 159.773 167.211ZM162.414 172.172C161.138 172.172 160.125 171.794 159.375 171.039C158.625 170.279 158.25 169.271 158.25 168.016C158.25 166.781 158.609 165.768 159.328 164.977C160.052 164.18 161.008 163.781 162.195 163.781C162.945 163.781 163.586 163.956 164.117 164.305C164.654 164.654 165.049 165.128 165.305 165.727C165.565 166.326 165.695 167.021 165.695 167.812C165.695 167.911 165.688 168.039 165.672 168.195H159.734C159.75 169.091 160.008 169.784 160.508 170.273C161.008 170.758 161.669 171 162.492 171C163.451 171 164.299 170.703 165.039 170.109L165.469 171.172C164.609 171.839 163.591 172.172 162.414 172.172ZM170.617 172.172C169.924 172.172 169.312 172.068 168.781 171.859C168.255 171.651 167.846 171.432 167.555 171.203L167.953 170.133C168.25 170.352 168.628 170.549 169.086 170.727C169.549 170.904 170.021 170.992 170.5 170.992C171.562 170.992 172.094 170.602 172.094 169.82C172.094 169.492 171.974 169.247 171.734 169.086C171.495 168.924 171.029 168.727 170.336 168.492L169.648 168.258C169.383 168.164 169.156 168.076 168.969 167.992C168.786 167.909 168.602 167.805 168.414 167.68C168.227 167.549 168.076 167.411 167.961 167.266C167.846 167.115 167.753 166.935 167.68 166.727C167.612 166.513 167.578 166.273 167.578 166.008C167.578 165.628 167.656 165.292 167.812 165C167.974 164.703 168.193 164.471 168.469 164.305C168.745 164.133 169.049 164.005 169.383 163.922C169.716 163.833 170.076 163.789 170.461 163.789C171.518 163.789 172.409 164.021 173.133 164.484L172.734 165.516C172.031 165.141 171.328 164.953 170.625 164.953C170.109 164.953 169.711 165.042 169.43 165.219C169.148 165.396 169.008 165.646 169.008 165.969C169.008 166.26 169.091 166.477 169.258 166.617C169.43 166.753 169.768 166.911 170.273 167.094C170.727 167.245 170.995 167.336 171.078 167.367C171.406 167.482 171.669 167.581 171.867 167.664C172.065 167.747 172.276 167.859 172.5 168C172.729 168.135 172.904 168.279 173.023 168.43C173.148 168.581 173.25 168.771 173.328 169C173.411 169.224 173.453 169.479 173.453 169.766C173.453 170.193 173.372 170.568 173.211 170.891C173.049 171.208 172.831 171.458 172.555 171.641C172.279 171.818 171.979 171.951 171.656 172.039C171.333 172.128 170.987 172.172 170.617 172.172ZM178.258 172.172C177.565 172.172 176.953 172.068 176.422 171.859C175.896 171.651 175.487 171.432 175.195 171.203L175.594 170.133C175.891 170.352 176.268 170.549 176.727 170.727C177.19 170.904 177.661 170.992 178.141 170.992C179.203 170.992 179.734 170.602 179.734 169.82C179.734 169.492 179.615 169.247 179.375 169.086C179.135 168.924 178.669 168.727 177.977 168.492L177.289 168.258C177.023 168.164 176.797 168.076 176.609 167.992C176.427 167.909 176.242 167.805 176.055 167.68C175.867 167.549 175.716 167.411 175.602 167.266C175.487 167.115 175.393 166.935 175.32 166.727C175.253 166.513 175.219 166.273 175.219 166.008C175.219 165.628 175.297 165.292 175.453 165C175.615 164.703 175.833 164.471 176.109 164.305C176.385 164.133 176.69 164.005 177.023 163.922C177.357 163.833 177.716 163.789 178.102 163.789C179.159 163.789 180.049 164.021 180.773 164.484L180.375 165.516C179.672 165.141 178.969 164.953 178.266 164.953C177.75 164.953 177.352 165.042 177.07 165.219C176.789 165.396 176.648 165.646 176.648 165.969C176.648 166.26 176.732 166.477 176.898 166.617C177.07 166.753 177.409 166.911 177.914 167.094C178.367 167.245 178.635 167.336 178.719 167.367C179.047 167.482 179.31 167.581 179.508 167.664C179.706 167.747 179.917 167.859 180.141 168C180.37 168.135 180.544 168.279 180.664 168.43C180.789 168.581 180.891 168.771 180.969 169C181.052 169.224 181.094 169.479 181.094 169.766C181.094 170.193 181.013 170.568 180.852 170.891C180.69 171.208 180.471 171.458 180.195 171.641C179.919 171.818 179.62 171.951 179.297 172.039C178.974 172.128 178.628 172.172 178.258 172.172Z" fill="#3A3A3A"/>
<g clip-path="url(#clip0)">
<path d="M149.039 139.918C149.035 139.632 148.947 133.531 147.373 126.033C145.235 115.847 141.526 108.38 136.35 103.837C133.703 101.514 130.255 100.235 126.641 100.235H119.359C115.745 100.235 112.297 101.514 109.65 103.837C104.474 108.379 100.765 115.847 98.6266 126.033C97.151 133.063 96.9813 138.864 96.9631 139.798C96.9617 139.866 96.9611 139.908 96.961 139.921C96.9595 140.064 96.9865 140.204 97.0389 140.333C97.0914 140.463 97.1691 140.582 97.2694 140.683C97.4698 140.886 97.743 141 98.0281 141H147.972C148.257 141 148.53 140.886 148.73 140.683C148.931 140.481 149.042 140.206 149.039 139.921C149.039 139.921 149.039 139.921 149.039 139.921C149.039 139.921 149.039 139.919 149.039 139.918ZM100.723 126.433C103.267 114.346 107.747 108.346 111.058 105.441C113.315 103.46 116.263 102.369 119.359 102.369H126.641C129.737 102.369 132.685 103.46 134.942 105.441C140.939 110.704 143.872 119.761 145.277 126.433C145.619 128.058 145.889 129.623 146.102 131.078C145.639 130.934 145.28 130.711 144.873 130.456C144.079 129.959 143.091 129.341 141.262 129.341C139.434 129.341 138.446 129.959 137.652 130.456C136.947 130.897 136.39 131.246 135.174 131.246C133.958 131.246 133.401 130.897 132.696 130.456C131.902 129.959 130.915 129.341 129.086 129.341C127.258 129.341 126.27 129.959 125.476 130.456C124.771 130.897 124.214 131.246 122.999 131.246C121.783 131.246 121.226 130.897 120.521 130.456C119.727 129.959 118.739 129.341 116.911 129.341C115.083 129.341 114.095 129.959 113.301 130.456C112.596 130.897 112.039 131.246 110.824 131.246C109.608 131.246 109.051 130.897 108.346 130.456C107.552 129.959 106.565 129.341 104.736 129.341C102.908 129.341 101.92 129.959 101.126 130.456C100.719 130.711 100.361 130.934 99.8974 131.078C100.111 129.623 100.381 128.058 100.723 126.433ZM99.1318 138.866C99.1839 137.729 99.3082 135.766 99.5997 133.318C100.844 133.15 101.615 132.668 102.259 132.265C102.964 131.823 103.521 131.474 104.737 131.474C105.952 131.474 106.509 131.823 107.214 132.265C108.008 132.761 108.996 133.38 110.824 133.38C112.652 133.38 113.64 132.761 114.434 132.265C115.139 131.823 115.696 131.474 116.911 131.474C118.127 131.474 118.684 131.823 119.389 132.265C120.183 132.761 121.171 133.38 122.999 133.38C124.827 133.38 125.815 132.761 126.609 132.265C127.314 131.823 127.871 131.474 129.087 131.474C130.302 131.474 130.859 131.823 131.564 132.265C132.358 132.761 133.346 133.38 135.174 133.38C137.003 133.38 137.991 132.761 138.784 132.265C139.49 131.823 140.047 131.474 141.263 131.474C142.478 131.474 143.035 131.823 143.741 132.265C144.385 132.668 145.156 133.15 146.4 133.318C146.692 135.766 146.816 137.729 146.868 138.866H99.1318Z" fill="#EC3892"/>
<path d="M136.643 88.0902C136.633 87.9452 136.616 87.802 136.596 87.6596V80.464C136.596 77.9197 134.526 75.8497 131.982 75.8497H129.505C128.281 75.8497 127.285 74.8535 127.285 73.6291V71.7862C127.285 70.2499 126.035 69 124.498 69H121.136C119.599 69 118.35 70.2499 118.35 71.7862V73.6291C118.35 74.8535 117.353 75.8497 116.129 75.8497H114.018C111.474 75.8497 109.404 77.9197 109.404 80.464V87.6605C109.384 87.8025 109.367 87.9454 109.357 88.0902C109.332 88.4594 109.271 89.3241 111.316 97.8347C111.454 98.4076 112.03 98.7594 112.603 98.6229C113.176 98.4852 113.529 97.9091 113.391 97.336C111.582 89.8071 111.476 88.4667 111.486 88.2379C111.494 88.1237 111.507 88.0109 111.524 87.8994C111.525 87.8983 111.525 87.897 111.525 87.8959C111.8 86.1215 113.218 84.7126 114.964 84.4246C114.968 84.4239 114.973 84.4233 114.978 84.4225C115.091 84.4042 115.206 84.3903 115.321 84.3815C115.824 84.3436 116.317 84.3946 116.781 84.5251C117.803 84.8123 118.688 85.484 119.246 86.4393C119.72 87.2501 120.443 87.869 121.282 88.2192C121.786 88.4293 122.331 88.5426 122.89 88.5426H123.11C124.6 88.5426 125.996 87.7368 126.754 86.4394C127.565 85.0501 129.068 84.2623 130.679 84.3817C130.794 84.3903 130.909 84.4043 131.022 84.4226C131.027 84.4233 131.032 84.4239 131.036 84.4247C132.782 84.7127 134.2 86.1216 134.475 87.896C134.475 87.8987 134.476 87.9014 134.476 87.904C134.493 88.0133 134.506 88.1237 134.514 88.2355C134.524 88.4677 134.417 89.8126 132.6 97.3733C132.462 97.9462 132.815 98.5225 133.388 98.6602C133.472 98.6803 133.556 98.69 133.638 98.69C134.12 98.69 134.557 98.361 134.675 97.8721C136.729 89.3269 136.669 88.4602 136.643 88.0902ZM134.462 83.7655C133.722 83.1274 132.835 82.6582 131.86 82.418C131.844 82.4141 131.828 82.4101 131.811 82.4063C131.748 82.3913 131.685 82.3769 131.621 82.3637C131.59 82.3574 131.558 82.3516 131.527 82.3457C131.475 82.3359 131.422 82.3257 131.369 82.3172C131.321 82.3093 131.273 82.3028 131.225 82.2962C131.186 82.2909 131.147 82.2847 131.108 82.28C131.018 82.2694 130.928 82.2604 130.837 82.2536C128.408 82.0736 126.137 83.264 124.911 85.3634C124.534 86.0081 123.844 86.4088 123.11 86.4088H122.889C122.155 86.4088 121.465 86.0083 121.089 85.3634C121.015 85.2364 120.936 85.1131 120.855 84.9928C120.827 84.9525 120.798 84.9145 120.769 84.875C120.714 84.7965 120.658 84.7181 120.599 84.6427C120.563 84.5974 120.526 84.5546 120.489 84.5105C120.434 84.444 120.38 84.3775 120.322 84.3136C120.282 84.2686 120.24 84.2257 120.198 84.182C120.141 84.1225 120.085 84.0632 120.026 84.0062C119.982 83.963 119.936 83.9218 119.89 83.8802C119.832 83.8262 119.773 83.7726 119.712 83.721C119.664 83.6808 119.616 83.6421 119.567 83.6033C119.505 83.5541 119.443 83.5054 119.38 83.4588C119.33 83.4218 119.279 83.3862 119.228 83.3508C119.163 83.3059 119.098 83.262 119.031 83.2197C118.979 83.1865 118.927 83.1542 118.874 83.1225C118.806 83.0819 118.737 83.0428 118.667 83.0048C118.614 82.9756 118.56 82.9467 118.506 82.919C118.434 82.8826 118.362 82.8482 118.289 82.8146C118.234 82.7895 118.18 82.7645 118.125 82.741C118.049 82.7087 117.973 82.679 117.896 82.6496C117.841 82.6289 117.787 82.6078 117.733 82.5887C117.652 82.5606 117.57 82.5356 117.488 82.5107C117.435 82.4946 117.383 82.4773 117.329 82.4627C117.242 82.4387 117.153 82.4183 117.064 82.398C117.015 82.3868 116.966 82.3738 116.916 82.3639C116.815 82.3432 116.712 82.3269 116.609 82.3111C116.571 82.3054 116.533 82.2976 116.495 82.2924C116.217 82.2551 115.933 82.2355 115.647 82.2355C115.64 82.2355 115.632 82.2359 115.625 82.2359C115.615 82.2359 115.605 82.2363 115.595 82.2364C115.451 82.2376 115.307 82.2428 115.162 82.2536C115.072 82.2604 114.982 82.2694 114.892 82.2802C114.853 82.2848 114.814 82.2909 114.775 82.2962C114.727 82.303 114.678 82.3094 114.63 82.3173C114.577 82.3259 114.525 82.3359 114.473 82.3457C114.441 82.3516 114.41 82.3574 114.378 82.3639C114.315 82.3769 114.252 82.3913 114.189 82.4062C114.172 82.4101 114.156 82.4141 114.139 82.418C113.165 82.6582 112.277 83.1276 111.537 83.7655V80.464H111.538C111.538 79.0963 112.65 77.9837 114.018 77.9837H116.129C118.53 77.9837 120.484 76.0303 120.484 73.6291V71.7862C120.484 71.4266 120.776 71.134 121.136 71.134H124.498C124.858 71.134 125.151 71.4266 125.151 71.7862V73.6291C125.151 76.0303 127.104 77.9837 129.505 77.9837H131.982C133.35 77.9837 134.462 79.0963 134.462 80.464V83.7655Z" fill="#EC3892"/>
</g>
<defs>
<filter id="filter0_d" x="0" y="0" width="249" height="247" filterUnits="userSpaceOnUse" color-interpolation-filters="sRGB">
<feFlood flood-opacity="0" result="BackgroundImageFix"/>
<feColorMatrix in="SourceAlpha" type="matrix" values="0 0 0 0 0 0 0 0 0 0 0 0 0 0 0 0 0 0 127 0"/>
<feOffset dy="4"/>
<feGaussianBlur stdDeviation="25"/>
<feColorMatrix type="matrix" values="0 0 0 0 0 0 0 0 0 0 0 0 0 0 0 0 0 0 0.1 0"/>
<feBlend mode="normal" in2="BackgroundImageFix" result="effect1_dropShadow"/>
<feBlend mode="normal" in="SourceGraphic" in2="effect1_dropShadow" result="shape"/>
</filter>
<clipPath id="clip0">
<rect width="72" height="72" fill="white" transform="translate(87 69)"/>
</clipPath>
</defs>
</svg>
